<?xml version="1.0" standalone="no"?>
<!DOCTYPE svg PUBLIC "-//W3C//DTD SVG 20010904//EN"
 "http://www.w3.org/TR/2001/REC-SVG-20010904/DTD/svg10.dtd">
<svg version="1.0" xmlns="http://www.w3.org/2000/svg"
 width="466.000000pt" height="466.000000pt" viewBox="0 0 466.000000 466.000000"
 preserveAspectRatio="xMidYMid meet">
<metadata>
Created by potrace 1.11, written by Peter Selinger 2001-2013
</metadata>
<g transform="translate(0.000000,466.000000) scale(0.100000,-0.100000)"
fill="#000000" stroke="none">
<path d="M2191 3069 l1 -122 -348 -348 -349 -349 124 -124 c133 -133 147 -140
191 -96 18 18 33 24 53 21 4 0 7 4 7 9 0 6 6 10 13 9 6 -1 20 1 29 5 40 18
198 -20 198 -47 0 -5 4 -6 9 -3 5 3 14 -1 22 -10 10 -13 5 -23 -36 -64 -27
-28 -54 -50 -60 -50 -14 0 -125 -112 -125 -127 0 -6 -17 -26 -38 -45 -21 -18
-41 -41 -45 -50 -3 -10 -11 -18 -17 -18 -5 0 -10 -6 -10 -13 0 -7 -8 -22 -17
-33 -16 -17 -53 -85 -59 -106 -1 -5 -2 -9 -4 -10 -1 -2 -3 -12 -4 -23 -2 -11
-4 -24 -6 -30 -1 -5 -2 -85 -1 -178 l1 -167 623 2 622 3 -1 165 c-1 141 -5
207 -14 218 -2 1 -4 7 -5 12 -1 6 -4 13 -5 18 -1 4 -2 10 -1 15 0 4 -4 7 -10
7 -5 0 -8 4 -4 9 3 5 -1 16 -9 24 -8 8 -12 17 -9 21 4 3 1 6 -5 6 -7 0 -12 6
-12 14 0 8 -7 17 -16 20 -8 3 -13 10 -9 15 3 6 -4 15 -15 21 -11 6 -20 16 -20
22 0 6 -24 33 -52 59 l-53 47 41 44 c23 23 44 51 47 61 4 9 11 17 17 17 5 0
10 7 10 15 0 8 5 15 10 15 6 0 10 6 10 14 0 8 7 22 16 30 8 9 13 16 9 16 -3 0
2 15 12 33 9 17 18 35 19 40 1 4 3 9 4 12 1 3 4 10 5 15 1 6 3 11 5 13 5 6 22
136 22 172 0 36 -17 166 -22 173 -2 1 -4 7 -5 12 -1 6 -4 12 -5 15 -1 3 -3 8
-4 13 -1 4 -7 17 -14 28 -6 12 -8 24 -5 28 3 3 1 6 -6 6 -7 0 -9 5 -6 10 3 6
1 10 -5 10 -6 0 -8 5 -5 10 3 6 2 10 -3 10 -5 0 -15 12 -23 28 -8 15 -18 30
-24 34 -5 4 -10 11 -10 15 -1 9 -197 203 -205 203 -3 0 -30 -25 -60 -56 l-55
-55 98 -95 c53 -52 97 -99 97 -105 0 -5 4 -9 10 -9 10 0 77 -134 79 -160 1 -8
2 -58 3 -110 1 -101 -8 -161 -24 -171 -5 -3 -9 -9 -8 -13 4 -12 -22 -66 -31
-66 -5 0 -9 -7 -9 -15 0 -8 -4 -15 -10 -15 -5 0 -10 -6 -10 -12 0 -7 -61 -74
-135 -148 l-135 -136 50 -49 c27 -27 56 -50 64 -51 9 -1 30 14 47 34 l32 37
59 -57 c32 -31 58 -61 58 -67 0 -6 5 -11 10 -11 9 0 47 -71 55 -102 2 -5 3
-11 4 -15 2 -5 3 -46 4 -93 l2 -85 -468 3 -468 2 2 88 c1 48 7 93 13 101 6 8
10 17 9 20 -5 11 8 41 18 41 5 0 9 7 9 15 0 8 5 15 10 15 6 0 10 4 10 9 0 4
113 120 250 257 138 136 250 252 250 258 0 6 -23 34 -51 62 l-51 51 -39 -41
-40 -41 -16 23 c-8 12 -21 22 -28 22 -8 0 -15 3 -17 8 -3 6 -72 43 -90 48 -5
1 -10 3 -13 4 -3 1 -9 4 -15 5 -5 1 -11 3 -12 5 -3 2 -85 11 -108 12 -30 0
-87 -9 -99 -16 -7 -5 -15 -5 -18 -2 -3 3 -12 1 -20 -5 -7 -6 -13 -8 -13 -3 0
5 -4 3 -9 -5 -8 -12 -15 -8 -38 19 -15 19 -28 37 -28 41 0 4 140 148 310 321
l310 313 0 148 0 147 -83 0 -83 0 2 -121z"/>
<path d="M2333 983 l-823 -3 0 -75 0 -75 825 0 825 0 0 80 c0 44 -1 79 -2 78
-2 -2 -373 -4 -825 -5z"/>
</g>
</svg>
